<svg width="640" height="176" viewBox="0 0 640 176" fill="none" xmlns="http://www.w3.org/2000/svg">
<path d="M0 12C0 5.37258 5.37258 0 12 0H628C634.627 0 640 5.37258 640 12V164C640 170.627 634.627 176 628 176H12C5.37259 176 0 170.627 0 164V12Z" fill="url(#paint0_linear_52_58)"/>
<path d="M260.175 67.3456C259.835 66.1725 259.251 65.0846 258.46 64.1535C257.67 63.2224 256.691 62.4693 255.589 61.9435C250.865 59.4215 243.369 59.3475 236.493 61.7595C230.068 63.9127 224.12 67.285 218.973 71.6916C213.469 76.7757 212.097 81.5417 212.595 84.0797C213.641 89.4158 219.143 93.1578 223.565 96.1638C224.401 96.7318 225.209 97.2818 225.915 97.7958C223.057 99.3158 217.393 102.684 215.739 106.292C215.207 107.316 214.91 108.445 214.869 109.597C214.828 110.75 215.045 111.897 215.503 112.956C215.751 113.562 216.122 114.11 216.593 114.565C217.064 115.02 217.624 115.373 218.239 115.6C219.21 115.867 220.212 116.001 221.219 116C223.283 115.964 225.307 115.425 227.116 114.429C228.925 113.434 230.464 112.012 231.599 110.288C232.621 108.713 233.303 106.942 233.6 105.089C233.898 103.235 233.805 101.339 233.327 99.5238C234.68 99.3126 236.056 99.2924 237.415 99.4639C238.483 99.4937 239.533 99.7416 240.502 100.193C241.471 100.643 242.337 101.288 243.047 102.086C243.637 102.791 243.939 103.692 243.893 104.61C243.803 105.051 243.619 105.467 243.352 105.83C243.086 106.193 242.743 106.493 242.349 106.71C241.881 106.99 241.177 107.42 241.341 108.316C241.413 108.704 241.737 109.582 243.129 109.34C244.308 109.014 245.355 108.327 246.124 107.377C246.893 106.426 247.346 105.259 247.419 104.038C247.433 102.958 247.229 101.887 246.817 100.889C246.406 99.8903 245.796 98.9858 245.025 98.2298C243.857 97.1199 242.475 96.2592 240.963 95.7001C239.452 95.1411 237.842 94.8953 236.233 94.9778C234.433 94.9517 232.637 95.1561 230.889 95.5858C229.512 94.2495 228.039 93.0155 226.483 91.8938C223.059 89.2938 219.823 86.8357 220.013 83.3737C220.263 78.8477 224.949 74.3096 233.941 69.8856C241.973 65.9336 248.449 65.8116 251.829 67.0096C252.828 67.2678 253.69 67.9 254.237 68.7756C254.513 69.5978 254.591 70.4733 254.466 71.3314C254.341 72.1896 254.016 73.0063 253.517 73.7156C251.866 76.192 249.669 78.2561 247.094 79.7486C244.519 81.2411 241.636 82.1221 238.667 82.3237C237.543 82.5695 236.378 82.5611 235.258 82.2992C234.137 82.0372 233.089 81.5284 232.191 80.8097C231.635 80.2057 231.005 79.5197 230.043 80.0437C229.291 80.4577 229.139 81.2497 229.593 82.4217C230.092 83.3554 230.776 84.1775 231.604 84.8377C232.432 85.498 233.386 85.9825 234.407 86.2617C239.182 87.3137 244.168 86.8444 248.663 84.9197C255.717 82.2197 262.025 74.5156 260.175 67.3456ZM228.291 104.95C228.183 105.27 228.055 105.583 227.907 105.886C227.513 106.676 227.006 107.405 226.401 108.048C225.816 108.819 225.043 109.428 224.156 109.815C223.269 110.203 222.298 110.357 221.335 110.262C221.223 110.198 221.179 109.97 221.165 109.876C221.204 109.01 221.414 108.161 221.784 107.377C222.153 106.592 222.674 105.889 223.317 105.308C224.882 103.769 226.664 102.467 228.605 101.442C228.772 102.62 228.665 103.82 228.291 104.95Z" fill="#EC407A"/>
<path d="M305.575 82.5982C305.484 81.606 305.083 80.8348 304.37 80.2846C303.667 79.7254 302.661 79.4458 301.353 79.4458C300.487 79.4458 299.766 79.5585 299.189 79.784C298.611 80.0095 298.178 80.3207 297.89 80.7176C297.601 81.1054 297.452 81.5519 297.443 82.057C297.425 82.4719 297.506 82.8373 297.687 83.1529C297.876 83.4686 298.147 83.7483 298.499 83.9918C298.859 84.2263 299.292 84.4338 299.797 84.6142C300.303 84.7946 300.871 84.9524 301.502 85.0877L303.883 85.6289C305.254 85.9266 306.463 86.3234 307.509 86.8195C308.565 87.3156 309.449 87.9064 310.161 88.5919C310.883 89.2775 311.429 90.0667 311.798 90.9597C312.168 91.8526 312.358 92.8538 312.367 93.9633C312.358 95.7131 311.916 97.215 311.041 98.4687C310.166 99.7225 308.907 100.683 307.266 101.351C305.633 102.018 303.662 102.352 301.353 102.352C299.035 102.352 297.015 102.005 295.292 101.31C293.569 100.615 292.23 99.5601 291.274 98.144C290.318 96.7279 289.826 94.9374 289.799 92.7727H296.212C296.266 93.6656 296.505 94.4098 296.929 95.0051C297.353 95.6004 297.935 96.0514 298.674 96.3581C299.423 96.6647 300.289 96.8181 301.272 96.8181C302.174 96.8181 302.941 96.6963 303.572 96.4528C304.213 96.2092 304.704 95.871 305.047 95.438C305.39 95.0051 305.566 94.509 305.575 93.9498C305.566 93.4266 305.403 92.9801 305.088 92.6103C304.772 92.2315 304.285 91.9067 303.626 91.6362C302.977 91.3565 302.147 91.0995 301.137 90.865L298.241 90.1885C295.842 89.6382 293.953 88.7498 292.572 87.5231C291.192 86.2874 290.507 84.6187 290.516 82.517C290.507 80.8033 290.967 79.3015 291.896 78.0116C292.825 76.7218 294.11 75.7161 295.752 74.9945C297.394 74.2729 299.265 73.9121 301.367 73.9121C303.514 73.9121 305.376 74.2774 306.955 75.008C308.542 75.7296 309.773 76.7443 310.648 78.0522C311.523 79.3601 311.97 80.8754 311.988 82.5982H305.575ZM321.607 102.352C320.282 102.352 319.104 102.131 318.076 101.689C317.057 101.238 316.25 100.561 315.654 99.6593C315.068 98.7483 314.775 97.6073 314.775 96.2363C314.775 95.0817 314.978 94.1076 315.384 93.3138C315.79 92.5201 316.349 91.8752 317.061 91.3791C317.774 90.883 318.595 90.5087 319.524 90.2561C320.453 89.9945 321.445 89.8186 322.5 89.7284C323.682 89.6202 324.634 89.5075 325.355 89.3902C326.077 89.2639 326.6 89.088 326.925 88.8625C327.258 88.628 327.425 88.2988 327.425 87.8749V87.8072C327.425 87.1127 327.186 86.576 326.708 86.1972C326.23 85.8183 325.585 85.6289 324.773 85.6289C323.899 85.6289 323.195 85.8183 322.663 86.1972C322.131 86.576 321.792 87.0991 321.648 87.7666L315.546 87.5501C315.727 86.2874 316.191 85.1599 316.94 84.1677C317.697 83.1665 318.735 82.3817 320.052 81.8135C321.377 81.2362 322.969 80.9476 324.828 80.9476C326.154 80.9476 327.376 81.1054 328.494 81.4211C329.613 81.7278 330.587 82.1788 331.417 82.7741C332.246 83.3604 332.887 84.082 333.338 84.9389C333.798 85.7958 334.028 86.7744 334.028 87.8749V102H327.804V99.1046H327.642C327.272 99.8082 326.798 100.403 326.221 100.891C325.653 101.378 324.981 101.743 324.205 101.986C323.439 102.23 322.573 102.352 321.607 102.352ZM323.65 98.0222C324.363 98.0222 325.003 97.8779 325.572 97.5893C326.149 97.3006 326.609 96.9038 326.952 96.3987C327.295 95.8845 327.466 95.2892 327.466 94.6127V92.6374C327.276 92.7366 327.046 92.8268 326.776 92.908C326.514 92.9891 326.226 93.0658 325.91 93.138C325.594 93.2101 325.27 93.2733 324.936 93.3274C324.602 93.3815 324.282 93.4311 323.975 93.4762C323.353 93.5754 322.821 93.7288 322.379 93.9362C321.946 94.1437 321.612 94.4143 321.377 94.748C321.152 95.0727 321.039 95.4606 321.039 95.9116C321.039 96.5971 321.283 97.1202 321.77 97.481C322.266 97.8418 322.893 98.0222 323.65 98.0222ZM356.217 87.5637L350.142 87.726C350.079 87.2931 349.907 86.9097 349.628 86.576C349.348 86.2332 348.983 85.9672 348.532 85.7777C348.09 85.5793 347.576 85.4801 346.989 85.4801C346.223 85.4801 345.569 85.6334 345.028 85.9401C344.495 86.2468 344.234 86.6617 344.243 87.1848C344.234 87.5907 344.396 87.9425 344.73 88.2402C345.073 88.5378 345.682 88.7768 346.557 88.9572L350.561 89.7149C352.636 90.1118 354.178 90.7702 355.189 91.6903C356.208 92.6103 356.722 93.828 356.731 95.3433C356.722 96.7685 356.298 98.0087 355.459 99.064C354.629 100.119 353.493 100.94 352.05 101.526C350.606 102.104 348.956 102.392 347.098 102.392C344.13 102.392 341.789 101.784 340.076 100.566C338.371 99.3391 337.397 97.6975 337.153 95.641L343.688 95.4786C343.832 96.2363 344.207 96.8136 344.811 97.2104C345.415 97.6073 346.187 97.8058 347.125 97.8058C347.973 97.8058 348.663 97.6479 349.195 97.3322C349.727 97.0165 349.998 96.5971 350.007 96.0739C349.998 95.6049 349.79 95.2306 349.384 94.951C348.978 94.6623 348.342 94.4368 347.477 94.2745L343.851 93.5844C341.767 93.2056 340.216 92.5066 339.196 91.4873C338.177 90.4591 337.672 89.1512 337.681 87.5637C337.672 86.1746 338.042 84.9885 338.79 84.0053C339.539 83.0131 340.603 82.2555 341.983 81.7323C343.363 81.2092 344.992 80.9476 346.868 80.9476C349.682 80.9476 351.901 81.5384 353.524 82.72C355.148 83.8926 356.045 85.5071 356.217 87.5637ZM378.132 87.5637L372.057 87.726C371.994 87.2931 371.822 86.9097 371.543 86.576C371.263 86.2332 370.898 85.9672 370.447 85.7777C370.005 85.5793 369.491 85.4801 368.904 85.4801C368.138 85.4801 367.484 85.6334 366.943 85.9401C366.41 86.2468 366.149 86.6617 366.158 87.1848C366.149 87.5907 366.311 87.9425 366.645 88.2402C366.988 88.5378 367.597 88.7768 368.471 88.9572L372.476 89.7149C374.551 90.1118 376.093 90.7702 377.103 91.6903C378.123 92.6103 378.637 93.828 378.646 95.3433C378.637 96.7685 378.213 98.0087 377.374 99.064C376.544 100.119 375.408 100.94 373.965 101.526C372.521 102.104 370.871 102.392 369.013 102.392C366.045 102.392 363.704 101.784 361.991 100.566C360.286 99.3391 359.312 97.6975 359.068 95.641L365.603 95.4786C365.747 96.2363 366.122 96.8136 366.726 97.2104C367.33 97.6073 368.102 97.8058 369.04 97.8058C369.888 97.8058 370.578 97.6479 371.11 97.3322C371.642 97.0165 371.913 96.5971 371.922 96.0739C371.913 95.6049 371.705 95.2306 371.299 94.951C370.893 94.6623 370.257 94.4368 369.391 94.2745L365.765 93.5844C363.682 93.2056 362.13 92.5066 361.111 91.4873C360.092 90.4591 359.587 89.1512 359.596 87.5637C359.587 86.1746 359.957 84.9885 360.705 84.0053C361.454 83.0131 362.518 82.2555 363.898 81.7323C365.278 81.2092 366.906 80.9476 368.783 80.9476C371.597 80.9476 373.816 81.5384 375.439 82.72C377.063 83.8926 377.96 85.5071 378.132 87.5637ZM388.519 74.2909V102H381.903V74.2909H388.519ZM396.776 109.793C395.982 109.793 395.233 109.73 394.53 109.604C393.826 109.487 393.222 109.329 392.717 109.13L394.178 104.327C394.828 104.544 395.414 104.67 395.937 104.706C396.469 104.742 396.925 104.656 397.304 104.449C397.691 104.25 397.989 103.894 398.196 103.38L398.454 102.758L391.066 81.2182H397.994L401.822 96.0469H402.039L405.922 81.2182H412.89L405.056 103.989C404.677 105.125 404.141 106.127 403.446 106.993C402.761 107.867 401.872 108.553 400.781 109.049C399.698 109.545 398.363 109.793 396.776 109.793ZM433.57 87.5637L427.495 87.726C427.432 87.2931 427.261 86.9097 426.981 86.576C426.702 86.2332 426.336 85.9672 425.885 85.7777C425.443 85.5793 424.929 85.4801 424.343 85.4801C423.576 85.4801 422.922 85.6334 422.381 85.9401C421.849 86.2468 421.587 86.6617 421.596 87.1848C421.587 87.5907 421.75 87.9425 422.083 88.2402C422.426 88.5378 423.035 88.7768 423.91 88.9572L427.915 89.7149C429.989 90.1118 431.532 90.7702 432.542 91.6903C433.561 92.6103 434.075 93.828 434.084 95.3433C434.075 96.7685 433.651 98.0087 432.813 99.064C431.983 100.119 430.846 100.94 429.403 101.526C427.96 102.104 426.309 102.392 424.451 102.392C421.484 102.392 419.143 101.784 417.429 100.566C415.724 99.3391 414.75 97.6975 414.507 95.641L421.042 95.4786C421.186 96.2363 421.56 96.8136 422.165 97.2104C422.769 97.6073 423.54 97.8058 424.478 97.8058C425.326 97.8058 426.016 97.6479 426.548 97.3322C427.08 97.0165 427.351 96.5971 427.36 96.0739C427.351 95.6049 427.144 95.2306 426.738 94.951C426.332 94.6623 425.696 94.4368 424.83 94.2745L421.204 93.5844C419.12 93.2056 417.569 92.5066 416.55 91.4873C415.53 90.4591 415.025 89.1512 415.034 87.5637C415.025 86.1746 415.395 84.9885 416.144 84.0053C416.892 83.0131 417.957 82.2555 419.337 81.7323C420.717 81.2092 422.345 80.9476 424.221 80.9476C427.035 80.9476 429.254 81.5384 430.878 82.72C432.501 83.8926 433.399 85.5071 433.57 87.5637Z" fill="white"/>
<defs>
<linearGradient id="paint0_linear_52_58" x1="0" y1="0" x2="604.091" y2="259.57" gradientUnits="userSpaceOnUse">
<stop stop-color="#171717"/>
<stop offset="1" stop-color="#262626"/>
</linearGradient>
</defs>
</svg>
